<?xml version="1.0" encoding="utf-8"?>
<!-- Generator: Adobe Illustrator 25.1.0, SVG Export Plug-In . SVG Version: 6.00 Build 0)  -->
<svg version="1.1" id="Layer_1" xmlns="http://www.w3.org/2000/svg" xmlns:xlink="http://www.w3.org/1999/xlink" x="0px" y="0px"
	 viewBox="0 0 205 199" style="enable-background:new 0 0 205 199;" xml:space="preserve">
<style type="text/css">
	.st0{fill:#FFFFFF;}
	.st1{fill:#FF6D1C;}
</style>
<g>
	<g>
		<path class="st0" d="M138.86,126.4c0,38.49-25.88,68.75-60.65,68.75c-17.65,0-29.46-7.17-37.3-17.39v13.94H0.83V0.58h41.41v73.4
			c7.83-9.42,19.25-16.06,35.97-16.06C112.98,57.91,138.86,88.18,138.86,126.4z M40.51,126.53c0,17.25,11.41,29.86,27.74,29.86
			c16.72,0,27.87-12.88,27.87-29.86S84.98,96.67,68.25,96.67C51.93,96.67,40.51,109.28,40.51,126.53z"/>
	</g>
	<path class="st1" d="M203.83,169.14c0,15.4-13.14,28.67-28.27,28.67c-15.26,0-28.54-13.27-28.54-28.67
		c0-15.13,13.27-28.14,28.54-28.14C190.69,141,203.83,154.01,203.83,169.14z"/>
</g>
</svg>
